<svg width="239" height="34" viewBox="0 0 239 34" fill="none" xmlns="http://www.w3.org/2000/svg">
<path d="M48.9 4.99998C46.5 4.99998 44.5 5.19998 42.6 5.39998V29C44.5 29.2 46.7 29.4 49.1 29.4C58.1 29.4 62.6 23.4 62.6 17C62.7 10.8 58 4.99998 48.9 4.99998ZM49.5 27.1C47.6 27.1 46.3 27 45.3 26.8V7.49998C46.2 7.29998 47.7 7.19998 49.2 7.19998C56.2 7.19998 59.9 11.4 59.9 16.9C59.8 22.7 56.6 27.1 49.5 27.1Z" fill="#D9A563"/>
<path d="M73.1 5.19999H70.5V29.3H73.1V5.19999Z" fill="#D9A563"/>
<path d="M87.8 15.6C84.8 14.3 83.7 12.9 83.7 11.2C83.7 8.99999 85.2 7.19999 88.3 7.19999C89.9 7.19999 91.5 7.79999 92.6 8.69999L93.8 6.49999C92.4 5.49999 90.5 4.89999 88.4 4.89999C84 4.89999 81 7.99999 81 11.5C81 14.4 82.5 16.3 86.7 18.1C90.6 19.8 91.5 21.1 91.5 23.2C91.5 25.4 90.1 27.4 87 27.4C85.1 27.4 83 26.6 81.2 25.3L79.9 27.6C82 29 84.1 29.8 86.9 29.8C91.1 29.8 94.3 26.8 94.3 22.9C94.2 19.5 92.8 17.8 87.8 15.6Z" fill="#D9A563"/>
<path d="M99.6 7.49999H107.6V29.2H110.2V7.49999H118.2V5.19999H99.6V7.49999Z" fill="#D9A563"/>
<path d="M127.6 5.19999H125V29.3H127.6V5.19999Z" fill="#D9A563"/>
<path d="M138.9 5.19999H136.3V29.2H150.3V26.9H138.9V5.19999Z" fill="#D9A563"/>
<path d="M159.4 5.19999H156.7V29.2H170.8V26.9H159.4V5.19999Z" fill="#D9A563"/>
<path d="M177.2 29.2H191.3V26.9H179.8V18.2H190.1V15.8H179.8V7.49999H191.3V5.19999H177.2V29.2Z" fill="#D9A563"/>
<path d="M214.1 12.3C214.1 8.19999 211 5.09999 204.8 5.09999C202.8 5.09999 201 5.29999 199.3 5.49999V29.3H201.9V19.8C202.7 19.8 203.8 19.9 204.6 19.9C205.2 19.9 205.7 19.9 206.2 19.8L212.6 29.3H215.8L208.8 19.3C212.2 18.2 214.1 15.7 214.1 12.3ZM204.8 17.7C203.9 17.7 202.7 17.6 201.9 17.5V7.69999C202.8 7.49999 204.1 7.39999 205.2 7.39999C209.1 7.39999 211.2 9.59999 211.2 12.4C211.3 15.6 209.3 17.7 204.8 17.7Z" fill="#D9A563"/>
<path d="M235.6 5.19999L228.8 16.3L221.9 5.19999H219L227.4 18.5V29.2H230V18.6L238.5 5.19999H235.6Z" fill="#D9A563"/>
<path d="M0 1.29999H9.1C17.8 1.29999 25 8.39999 25 17.2C25 26 17.8 33 9.1 33H5.7" stroke="#D9A563" stroke-width="2.0003" stroke-miterlimit="10"/>
<path d="M9 7.09999C14.5 7.29999 19 11.7 19 17.1C19 21.5 16 25.4 11.7 26.7" stroke="#B96B56" stroke-width="2.0003" stroke-miterlimit="10"/>
<path d="M6.6 14C7.3 13.5 8.1 13.2 9 13.2C11.2 13.2 13 15 13 17.2C13 17.8 12.9 18.4 12.6 19" stroke="#622852" stroke-width="2.0003" stroke-miterlimit="10"/>
</svg>
